<svg xmlns="http://www.w3.org/2000/svg" xmlns:xlink="http://www.w3.org/1999/xlink" width="16" height="23" version="1.1" viewBox="0 0 16 23"><g id="Side-Menu" fill="none" fill-rule="evenodd" stroke="none" stroke-linecap="round" stroke-linejoin="round" stroke-width="1"><g id="Navigation_sidemenu_dropdown" stroke="#FFF" transform="translate(-118.000000, -67.000000)"><g id="ic_account" transform="translate(119.000000, 68.000000)"><path id="Stroke-21" d="M14,21.0515333 L14.5,21.0515333 L14.5,20.5515333 L14.5,14.7111072 L14.5,12.3337362 C14.5,11.6391028 14.1209284,10.9940401 13.4641625,10.5171432 C12.8044382,10.0387255 11.9405868,9.77986411 11.0281379,9.77986411 L2.97186207,9.77986411 C2.05941324,9.77986411 1.19556179,10.0387255 0.536089664,10.5169602 C-0.120928379,10.9940401 -0.5,11.6391028 -0.5,12.3337362 L-0.5,14.7111072 L-0.5,20.5515333 L-0.5,21.0515333 L-2.27373675e-13,21.0515333 L14,21.0515333 Z"/><path id="Stroke-23" d="M10.9511379,4.17032584 C10.9511379,6.46329468 9.20210345,8.32245168 7.04441379,8.32245168 C4.88696552,8.32245168 3.13793103,6.46329468 3.13793103,4.17032584 C3.13793103,1.87735699 4.88696552,0.0182 7.04441379,0.0182 C9.20210345,0.0182 10.9511379,1.87735699 10.9511379,4.17032584 Z"/></g></g></g></svg>