<svg xmlns="http://www.w3.org/2000/svg" xmlns:xlink="http://www.w3.org/1999/xlink" width="20" height="21" version="1.1" viewBox="0 0 20 21"><g id="Side-Menu" fill="none" fill-rule="evenodd" stroke="none" stroke-linecap="round" stroke-linejoin="round" stroke-width="1"><g id="Navigation_sidemenu_dropdown" stroke="#FFF" transform="translate(-116.000000, -111.000000)"><g id="Group-4" transform="translate(100.000000, 20.000000)"><g id="ic_cart" transform="translate(16.000000, 91.000000)"><polyline id="Stroke-23" points="19.886 5.223 17.929 5.223 15.973 13.918 11.082 13.918 10.103 13.918 4.233 13.918 2.277 5.223 .32 5.223"/><path id="Stroke-25" d="M7.68956522,17.7831915 C7.68956522,18.9278723 6.8,19.8546809 5.7,19.8546809 C4.60173913,19.8546809 3.71130435,18.9278723 3.71130435,17.7831915 C3.71130435,16.6397872 4.60173913,15.7121277 5.7,15.7121277 C6.8,15.7121277 7.68956522,16.6397872 7.68956522,17.7831915 Z"/><path id="Stroke-27" d="M16.4947826,17.7831915 C16.4947826,18.9278723 15.6030435,19.8546809 14.5069565,19.8546809 C13.4056522,19.8546809 12.5165217,18.9278723 12.5165217,17.7831915 C12.5165217,16.6397872 13.4056522,15.7121277 14.5069565,15.7121277 C15.6030435,15.7121277 16.4947826,16.6397872 16.4947826,17.7831915 Z"/><polyline id="Stroke-29" points="10.033 .153 10.007 7.545 13.647 4.102"/><path id="Stroke-31" d="M10.0067826,7.54468085 L6.42808696,4.10851064"/></g></g></g></g></svg>