<svg xmlns="http://www.w3.org/2000/svg" xmlns:xlink="http://www.w3.org/1999/xlink" width="20" height="21" version="1.1" viewBox="0 0 20 21"><g id="Side-Menu" fill="none" fill-rule="evenodd" stroke="none" stroke-linecap="round" stroke-linejoin="round" stroke-width="1"><g id="Navigation_sidemenu_dropdown" stroke="#FFF" transform="translate(-116.000000, -155.000000)"><g id="ic_gift" transform="translate(117.000000, 156.000000)"><g id="Group-10"><path id="Stroke-34" d="M10.6536913,0.598183333 C11.2500391,-0.0901708333 12.2999087,-0.0901708333 12.8950826,0.598183333 C13.7504739,1.5857875 13.2331696,2.89757917 12.8950826,3.187725 C10.6094739,5.18826667 9.15851739,4.99707917 9.08103913,4.99707917 C8.93664783,4.21689167 9.75564783,1.71918333 10.6536913,0.598183333 Z"/><path id="Stroke-36" d="M5.27114348,0.598183333 C6.10579565,-0.364483333 7.35562174,0.257766667 7.51331739,0.598183333 C8.41214348,1.71918333 9.22996957,4.22480833 9.08088261,5.00539167 C8.04588261,5.16332917 5.9394913,3.9679125 5.26488261,3.19643333 C4.67636087,2.4906625 4.67636087,1.287725 5.27114348,0.598183333 Z"/><polygon id="Stroke-38" points=".288 8.796 17.897 8.796 17.897 5.02 .288 5.02"/><polygon id="Stroke-40" points="1.906 18.726 16.279 18.726 16.279 8.796 1.906 8.796"/></g></g></g></g></svg>